<svg width="5000" height="1195" viewBox="0 0 5000 1195" fill="none" xmlns="http://www.w3.org/2000/svg">
<g clip-path="url(#clip0_1801_2)">
<mask id="mask0_1801_2" style="mask-type:luminance" maskUnits="userSpaceOnUse" x="0" y="0" width="5000" height="1195">
<path d="M5000 0H0V1195H5000V0Z" fill="white"/>
</mask>
<g mask="url(#mask0_1801_2)">
<path d="M4767.17 453.151V361.425H4812.04C4817.84 361.425 4823.14 362.626 4827.94 365.029C4832.83 367.432 4836.69 370.912 4839.5 375.469C4842.4 379.944 4843.85 385.413 4843.85 391.876C4843.85 398.339 4842.36 403.849 4839.38 408.406C4836.4 412.964 4832.42 416.444 4827.45 418.847C4822.48 421.167 4816.97 422.327 4810.92 422.327H4780.22V405.05H4805.95C4809.43 405.05 4812.41 403.932 4814.89 401.695C4817.46 399.457 4818.75 396.143 4818.75 391.751C4818.75 387.194 4817.46 383.963 4814.89 382.057C4812.41 380.068 4809.47 379.074 4806.07 379.074H4791.03V453.151H4767.17ZM4825.71 410.768L4846.59 453.151H4820.49L4800.97 410.768H4825.71ZM4803.09 507.838C4789.33 507.838 4776.45 505.269 4764.43 500.132C4752.42 494.995 4741.85 487.869 4732.74 478.754C4723.62 469.64 4716.5 459.075 4711.36 447.06C4706.22 435.046 4703.65 422.161 4703.65 408.406C4703.65 394.652 4706.22 381.767 4711.36 369.752C4716.5 357.737 4723.62 347.173 4732.74 338.058C4741.85 328.944 4752.42 321.818 4764.43 316.68C4776.45 311.543 4789.33 308.974 4803.09 308.974C4816.84 308.974 4829.73 311.543 4841.74 316.68C4853.76 321.818 4864.32 328.944 4873.43 338.058C4882.55 347.173 4889.68 357.737 4894.81 369.752C4899.95 381.767 4902.52 394.652 4902.52 408.406C4902.52 422.161 4899.95 435.046 4894.81 447.06C4889.68 459.075 4882.55 469.64 4873.43 478.754C4864.32 487.869 4853.76 494.995 4841.74 500.132C4829.73 505.269 4816.84 507.838 4803.09 507.838ZM4803.09 481.613C4816.68 481.613 4828.98 478.34 4840 471.794C4851.1 465.165 4859.93 456.341 4866.47 445.32C4873.02 434.217 4876.29 421.912 4876.29 408.406C4876.29 394.9 4872.98 382.637 4866.35 371.616C4859.8 360.513 4850.98 351.689 4839.88 345.143C4828.86 338.514 4816.59 335.2 4803.09 335.2C4789.66 335.2 4777.4 338.514 4766.3 345.143C4755.19 351.689 4746.37 360.513 4739.82 371.616C4733.28 382.637 4730 394.9 4730 408.406C4730 421.912 4733.28 434.217 4739.82 445.32C4746.37 456.341 4755.19 465.165 4766.3 471.794C4777.4 478.34 4789.66 481.613 4803.09 481.613Z" fill="black"/>
<path d="M1484.4 468.6V727C1484.4 748.333 1488.93 763.533 1498 772.6C1507.07 781.133 1522.8 785.4 1545.2 785.4H1598.8V847H1533.2C1492.67 847 1462.27 837.667 1442 819C1421.73 800.333 1411.6 769.667 1411.6 727V468.6H1354.8V408.6H1411.6V298.2H1484.4V408.6H1598.8V468.6H1484.4ZM2087.01 611C2087.01 624.867 2086.21 639.533 2084.61 655H1734.21C1736.87 698.2 1751.54 732.067 1778.21 756.6C1805.41 780.6 1838.21 792.6 1876.61 792.6C1908.07 792.6 1934.21 785.4 1955.01 771C1976.34 756.067 1991.27 736.333 1999.81 711.8H2078.21C2066.47 753.933 2043.01 788.333 2007.81 815C1972.61 841.133 1928.87 854.2 1876.61 854.2C1835.01 854.2 1797.67 844.867 1764.61 826.2C1732.07 807.533 1706.47 781.133 1687.81 747C1669.14 712.333 1659.81 672.333 1659.81 627C1659.81 581.667 1668.87 541.933 1687.01 507.8C1705.14 473.667 1730.47 447.533 1763.01 429.4C1796.07 410.733 1833.94 401.4 1876.61 401.4C1918.21 401.4 1955.01 410.467 1987.01 428.6C2019.01 446.733 2043.54 471.8 2060.61 503.8C2078.21 535.267 2087.01 571 2087.01 611ZM2011.81 595.8C2011.81 568.067 2005.67 544.333 1993.41 524.6C1981.14 504.333 1964.34 489.133 1943.01 479C1922.21 468.333 1899.01 463 1873.41 463C1836.61 463 1805.14 474.733 1779.01 498.2C1753.41 521.667 1738.74 554.2 1735.01 595.8H2011.81ZM2155.9 627C2155.9 581.667 2164.97 542.2 2183.1 508.6C2201.23 474.467 2226.3 448.067 2258.3 429.4C2290.83 410.733 2327.9 401.4 2369.5 401.4C2423.37 401.4 2467.63 414.467 2502.3 440.6C2537.5 466.733 2560.7 503 2571.9 549.4H2493.5C2486.03 522.733 2471.37 501.667 2449.5 486.2C2428.17 470.733 2401.5 463 2369.5 463C2327.9 463 2294.3 477.4 2268.7 506.2C2243.1 534.467 2230.3 574.733 2230.3 627C2230.3 679.8 2243.1 720.6 2268.7 749.4C2294.3 778.2 2327.9 792.6 2369.5 792.6C2401.5 792.6 2428.17 785.133 2449.5 770.2C2470.83 755.267 2485.5 733.933 2493.5 706.2H2571.9C2560.17 751 2536.7 787 2501.5 814.2C2466.3 840.867 2422.3 854.2 2369.5 854.2C2327.9 854.2 2290.83 844.867 2258.3 826.2C2226.3 807.533 2201.23 781.133 2183.1 747C2164.97 712.867 2155.9 672.867 2155.9 627ZM2886.64 400.6C2919.7 400.6 2949.57 407.8 2976.24 422.2C3002.9 436.067 3023.7 457.133 3038.64 485.4C3054.1 513.667 3061.84 548.067 3061.84 588.6V847H2989.84V599C2989.84 555.267 2978.9 521.933 2957.04 499C2935.17 475.533 2905.3 463.8 2867.44 463.8C2829.04 463.8 2798.37 475.8 2775.44 499.8C2753.04 523.8 2741.84 558.733 2741.84 604.6V847H2669.04V255H2741.84V471C2756.24 448.6 2775.97 431.267 2801.04 419C2826.64 406.733 2855.17 400.6 2886.64 400.6ZM3343.96 779.8L3479.96 408.6H3557.56L3385.56 847H3300.76L3128.76 408.6H3207.16L3343.96 779.8ZM3666.79 337.4C3652.93 337.4 3641.19 332.6 3631.59 323C3621.99 313.4 3617.19 301.667 3617.19 287.8C3617.19 273.933 3621.99 262.2 3631.59 252.6C3641.19 243 3652.93 238.2 3666.79 238.2C3680.13 238.2 3691.33 243 3700.39 252.6C3709.99 262.2 3714.79 273.933 3714.79 287.8C3714.79 301.667 3709.99 313.4 3700.39 323C3691.33 332.6 3680.13 337.4 3666.79 337.4ZM3701.99 408.6V847H3629.19V408.6H3701.99ZM4039.67 400.6C4093 400.6 4136.2 416.867 4169.27 449.4C4202.34 481.4 4218.87 527.8 4218.87 588.6V847H4146.87V599C4146.87 555.267 4135.94 521.933 4114.07 499C4092.2 475.533 4062.34 463.8 4024.47 463.8C3986.07 463.8 3955.4 475.8 3932.47 499.8C3910.07 523.8 3898.87 558.733 3898.87 604.6V847H3826.07V408.6H3898.87V471C3913.27 448.6 3932.74 431.267 3957.27 419C3982.34 406.733 4009.8 400.6 4039.67 400.6ZM4492.99 854.2C4459.39 854.2 4429.25 848.6 4402.59 837.4C4375.92 825.667 4354.85 809.667 4339.39 789.4C4323.92 768.6 4315.39 744.867 4313.79 718.2H4388.99C4391.12 740.067 4401.25 757.933 4419.39 771.8C4438.05 785.667 4462.32 792.6 4492.19 792.6C4519.92 792.6 4541.79 786.467 4557.79 774.2C4573.79 761.933 4581.79 746.467 4581.79 727.8C4581.79 708.6 4573.25 694.467 4556.19 685.4C4539.12 675.8 4512.72 666.467 4476.99 657.4C4444.45 648.867 4417.79 640.333 4396.99 631.8C4376.72 622.733 4359.12 609.667 4344.19 592.6C4329.79 575 4322.59 552.067 4322.59 523.8C4322.59 501.4 4329.25 480.867 4342.59 462.2C4355.92 443.533 4374.85 428.867 4399.39 418.2C4423.92 407 4451.92 401.4 4483.39 401.4C4531.92 401.4 4571.12 413.667 4600.99 438.2C4630.85 462.733 4646.85 496.333 4648.99 539H4576.19C4574.59 516.067 4565.25 497.667 4548.19 483.8C4531.65 469.933 4509.25 463 4480.99 463C4454.85 463 4434.05 468.6 4418.59 479.8C4403.12 491 4395.39 505.667 4395.39 523.8C4395.39 538.2 4399.92 550.2 4408.99 559.8C4418.59 568.867 4430.32 576.333 4444.19 582.2C4458.59 587.533 4478.32 593.667 4503.39 600.6C4534.85 609.133 4560.45 617.667 4580.19 626.2C4599.92 634.2 4616.72 646.467 4630.59 663C4644.99 679.533 4652.45 701.133 4652.99 727.8C4652.99 751.8 4646.32 773.4 4632.99 792.6C4619.65 811.8 4600.72 827 4576.19 838.2C4552.19 848.867 4524.45 854.2 4492.99 854.2Z" fill="black"/>
<path d="M708 835L1074 476.232V233" stroke="black" stroke-width="100"/>
<path d="M912 233H580V314H912V233Z" fill="black"/>
<path d="M696 582.626V309H796V582.626L746.714 609L696 582.626Z" fill="black"/>
<path d="M770 827L418 473V233" stroke="black" stroke-width="100"/>
</g>
</g>
<defs>
<clipPath id="clip0_1801_2">
<rect width="5000" height="1195" fill="white"/>
</clipPath>
</defs>
</svg>
